<?xml version="1.0" encoding="UTF-8"?>
<svg version="1.1" xmlns="http://www.w3.org/2000/svg" width="48" height="48">
<path d="M0 0 C6.68467545 3.73000699 10.34678008 8.48325289 12.6875 15.875 C13.86752799 23.56463296 12.01270001 29.47825683 7.6875 35.875 C3.68913313 40.46653118 -1.61458449 43.30752899 -7.62890625 44.23046875 C-15.04747748 44.66002608 -21.32505486 42.34732065 -26.9453125 37.453125 C-31.90045512 31.93422364 -33.97137715 25.7999278 -33.7265625 18.5 C-32.78501883 12.53096842 -29.9534845 6.99217426 -25.4375 2.9375 C-17.02682876 -2.61354302 -9.31810971 -4.29853275 0 0 Z M-19.3125 1.875 C-19.9725 3.525 -20.6325 5.175 -21.3125 6.875 C-20.3225 7.37 -20.3225 7.37 -19.3125 7.875 C-18.56640625 9.9140625 -18.56640625 9.9140625 -17.875 12.5 C-16.62987588 16.83925755 -15.43700776 20.88092542 -13.3125 24.875 C-11.24359581 25.91789755 -11.24359581 25.91789755 -9.3125 25.875 C-9.6425 27.855 -9.9725 29.835 -10.3125 31.875 C-8.3325 31.875 -6.3525 31.875 -4.3125 31.875 C-4.498125 30.92625 -4.68375 29.9775 -4.875 29 C-5.3125 25.875 -5.3125 25.875 -4.3125 23.875 C-4.9725 23.875 -5.6325 23.875 -6.3125 23.875 C-6.3125 18.265 -6.3125 12.655 -6.3125 6.875 C-7.3025 7.205 -8.2925 7.535 -9.3125 7.875 C-9.3125 12.165 -9.3125 16.455 -9.3125 20.875 C-12.0280831 15.63780401 -14.33783048 10.41387823 -16.3828125 4.87890625 C-17.14003444 2.70158661 -17.14003444 2.70158661 -19.3125 1.875 Z M-22.3125 7.875 C-21.3125 9.875 -21.3125 9.875 -21.3125 9.875 Z M-24.3125 12.875 C-23.3125 14.875 -23.3125 14.875 -23.3125 14.875 Z M-25.3125 15.875 C-25.3125 16.535 -25.3125 17.195 -25.3125 17.875 C-24.6525 17.545 -23.9925 17.215 -23.3125 16.875 C-23.9725 16.545 -24.6325 16.215 -25.3125 15.875 Z M-26.3125 17.875 C-25.3125 19.875 -25.3125 19.875 -25.3125 19.875 Z M-27.3125 20.875 C-27.6425 22.195 -27.9725 23.515 -28.3125 24.875 C-27.6525 24.875 -26.9925 24.875 -26.3125 24.875 C-26.6425 23.555 -26.9725 22.235 -27.3125 20.875 Z M-2.3125 21.875 C-2.6425 22.535 -2.9725 23.195 -3.3125 23.875 C-2.54649418 25.89425867 -2.54649418 25.89425867 -1.375 28 C-0.99472656 28.72445313 -0.61445312 29.44890625 -0.22265625 30.1953125 C0.22787109 31.02675781 0.22787109 31.02675781 0.6875 31.875 C2.6675 31.875 4.6475 31.875 6.6875 31.875 C6.0275 31.545 5.3675 31.215 4.6875 30.875 C3.98355388 29.56096724 3.32404342 28.2229743 2.6875 26.875 C1.26128316 24.16373616 1.26128316 24.16373616 -0.3125 21.875 C-0.9725 21.875 -1.6325 21.875 -2.3125 21.875 Z " fill="#000000" transform="translate(34.3125,3.125)"/>
</svg>
