<?xml version="1.0" encoding="UTF-8"?>
<svg version="1.1" xmlns="http://www.w3.org/2000/svg" width="500" height="500">
<path d="M0 0 C165 0 330 0 500 0 C500 165 500 330 500 500 C335 500 170 500 0 500 C0 335 0 170 0 0 Z " fill="#000000" transform="translate(0,0)"/>
<path d="M0 0 C7.92 0 15.84 0 24 0 C27.40250301 7.38243466 30.6204138 14.80478542 33.66796875 22.33984375 C34.10017227 23.40301315 34.53237579 24.46618256 34.97767639 25.56156921 C35.90256634 27.83737846 36.82644522 30.11359882 37.74938965 32.39019775 C39.7126615 37.23288499 41.68089253 42.07355186 43.64877319 46.91436768 C44.65263275 49.38394899 45.65628762 51.85361218 46.65957642 54.32342529 C51.17241255 65.43104816 55.70683461 76.52975375 60.25 87.625 C60.98259095 89.41438544 61.71517559 91.20377346 62.44775391 92.99316406 C63.5395568 95.65998551 64.6313776 98.32679959 65.72332764 100.99356079 C68.32560252 107.34973228 70.92336316 113.70773832 73.51953125 120.06640625 C77.25718848 129.22014719 81.00227655 138.37081969 84.75341797 147.51904297 C86.27535 151.23076222 87.79495346 154.9434235 89.31298828 158.65673828 C91.21461171 163.30693887 93.12288597 167.95436263 95.03561401 172.6000061 C95.74649287 174.3292597 96.45534826 176.05934691 97.16189575 177.79037476 C106.97765649 205.0190964 106.97765649 205.0190964 127.1640625 224.03125 C130.98687393 225.33711396 134.83346522 225.97127761 138.8125 226.625 C139.99489258 226.82609375 139.99489258 226.82609375 141.20117188 227.03125 C143.13328006 227.3591229 145.0665322 227.68024237 147 228 C147 232.29 147 236.58 147 241 C108.39 241 69.78 241 30 241 C30 236.71 30 232.42 30 228 C31.2065625 227.91363281 32.413125 227.82726562 33.65625 227.73828125 C45.73698952 226.91987372 45.73698952 226.91987372 56 221 C58.93562973 212.19311081 55.87073304 204.56684294 52.8125 196.25 C52.42513672 195.15945312 52.03777344 194.06890625 51.63867188 192.9453125 C48.88508512 185.24437234 45.93739527 177.6372277 43 170 C13.96 169.67 -15.08 169.34 -45 169 C-45.99 171.97 -45.99 171.97 -47 175 C-47.60183734 176.61368944 -48.21486734 178.22325545 -48.83984375 179.828125 C-49.18080078 180.71113281 -49.52175781 181.59414062 -49.87304688 182.50390625 C-50.57690693 184.31973604 -51.28260594 186.13485418 -51.99023438 187.94921875 C-58.314248 204.33568072 -58.314248 204.33568072 -57 221.5625 C-53.7003364 225.58396501 -50.07588572 226.66021742 -45.06396484 227.21386719 C-40.38117227 227.61661931 -35.69652794 227.83470958 -31 228 C-31 232.29 -31 236.58 -31 241 C-59.05 241 -87.1 241 -116 241 C-116 236.71 -116 232.42 -116 228 C-112.844375 227.4121875 -112.844375 227.4121875 -109.625 226.8125 C-99.24982005 224.55930436 -92.41726566 221.48948003 -86 213 C-84.48220534 210.45232256 -83.24759158 207.82335865 -82.04443359 205.11499023 C-81.70703344 204.37615066 -81.36963329 203.63731108 -81.0220089 202.87608242 C-77.83837344 195.82037705 -74.95855317 188.65061579 -72.16782761 181.432127 C-70.57314409 177.30921147 -68.95689358 173.19471609 -67.34472656 169.07861328 C-66.82637143 167.75283406 -66.82637143 167.75283406 -66.29754448 166.40027142 C-61.95460244 155.30375469 -57.51779626 144.24481968 -53.0859375 133.18359375 C-52.21300644 131.00344593 -51.34013291 128.82327506 -50.46731567 126.64308167 C-48.68268891 122.18571319 -46.89763253 117.72851712 -45.11224365 113.27145386 C-40.47832559 101.70290469 -35.84796186 90.13293308 -31.21875 78.5625 C-30.76833218 77.43672987 -30.31791435 76.31095974 -29.8538475 75.15107536 C-19.84192912 50.12462019 -9.89098367 25.07451125 0 0 Z " fill="#FCFCFC" transform="translate(130,51)"/>
<path d="M0 0 C0.78694966 0.00291284 1.57389933 0.00582568 2.38469595 0.00882679 C3.2145115 0.00797237 4.04432706 0.00711794 4.89928854 0.00623763 C7.70156959 0.00458028 10.5037918 0.01010834 13.30606741 0.01555592 C15.30618946 0.01583776 17.30631162 0.01568011 19.30643362 0.01511341 C24.75455674 0.01482532 30.20265805 0.02072386 35.65077609 0.02768737 C41.33762481 0.03391905 47.02447398 0.03452456 52.71132559 0.03571278 C63.48837598 0.03882665 74.26541629 0.04704078 85.04246223 0.05706227 C97.30827247 0.06822169 109.57408317 0.07373342 121.83989722 0.0787577 C147.07919588 0.08922335 172.31848557 0.10682386 197.55777639 0.12908131 C197.6056801 1.56364896 197.63980009 2.99868113 197.66812795 4.43376881 C197.68861196 5.23282643 197.70909597 6.03188404 197.73020071 6.85515553 C197.45326602 10.50736042 195.65723185 12.41021462 193.30777639 15.12908131 C192.37842132 16.24721424 191.45281071 17.36846718 190.53043264 18.49236256 C190.04203909 19.07969166 189.55364553 19.66702076 189.05045217 20.27214772 C186.45240143 23.50420103 184.11024685 26.91232101 181.74527639 30.31658131 C180.72780124 31.77023437 179.7095607 33.22335197 178.69058889 34.67595631 C177.91956838 35.77520436 177.91956838 35.77520436 177.1329717 36.89665943 C174.49104354 40.6408924 171.80705669 44.35446015 169.12027639 48.06658131 C168.5804009 48.81254566 168.04052541 49.55851002 167.48429006 50.32707936 C166.38939595 51.83921558 165.29426217 53.3511783 164.19888967 54.86296803 C161.48129466 58.61552931 158.76983167 62.3725155 156.05777639 66.12908131 C154.97447277 67.62910277 153.89113943 69.12910277 152.80777639 70.62908131 C152.27152639 71.37158131 151.73527639 72.11408131 151.18277639 72.87908131 C146.30777639 79.62908131 146.30777639 79.62908131 144.68204397 81.88005787 C143.60110448 83.37676831 142.52021238 84.87351299 141.43936819 86.37029225 C138.69480099 90.17090768 135.94935673 93.97088429 133.20230764 97.76970631 C128.30432305 104.54448873 123.41033551 111.32166233 118.55777639 118.12908131 C113.1497952 125.71567488 107.69050512 133.26498272 102.23111624 140.81462818 C99.505145 144.5850115 96.78156105 148.35711824 94.05777639 152.12908131 C92.97445495 153.6290899 91.8911216 155.12908989 90.80777639 156.62908131 C90.27152639 157.37158131 89.73527639 158.11408131 89.18277639 158.87908131 C84.30777639 165.62908131 84.30777639 165.62908131 82.68204397 167.88005787 C81.60110448 169.37676831 80.52021238 170.87351299 79.43936819 172.37029225 C76.69480099 176.17090768 73.94935673 179.97088429 71.20230764 183.76970631 C66.22617033 190.65220095 61.25250462 197.53647047 56.30777639 204.44158131 C55.60137014 205.42771412 54.89496389 206.41384693 54.16715139 207.42986256 C51.71342557 210.88610636 49.30572701 214.37420898 46.89469045 217.86028248 C46.47720541 218.46363171 46.05972036 219.06698094 45.62958425 219.68861347 C44.60549922 221.16866628 43.58161747 222.64885973 42.55777639 224.12908131 C56.38032671 224.09089761 70.20260883 224.03135204 84.02494806 223.94517857 C90.44451066 223.90581413 96.86393834 223.87357159 103.28360647 223.85808522 C109.48890374 223.84284594 115.69382982 223.8082718 121.89896101 223.76077229 C124.25616298 223.74603323 126.61341797 223.73804463 128.97066587 223.73719746 C154.72832206 223.85769761 154.72832206 223.85769761 176.44449514 211.30486256 C185.9365736 200.49501182 188.6492091 184.804941 191.55777639 171.12908131 C191.97302974 169.27459761 192.38936955 167.42035607 192.80777639 165.56658131 C193.17902639 163.86501881 193.17902639 163.86501881 193.55777639 162.12908131 C198.17777639 162.12908131 202.79777639 162.12908131 207.55777639 162.12908131 C207.55777639 188.81449139 205.91291095 215.47810156 204.55777639 242.12908131 C128.65777639 242.12908131 52.75777639 242.12908131 -25.44222361 242.12908131 C-25.44222361 233.13134888 -25.44222361 233.13134888 -23.05550486 230.04314381 C-22.53601267 229.34962818 -22.01652048 228.65611256 -21.48128611 227.94158131 C-20.91152048 227.21970631 -20.34175486 226.49783131 -19.75472361 225.75408131 C-18.55239956 224.16331411 -17.35059085 222.57215731 -16.14925486 220.98064381 C-15.53131052 220.17530201 -14.91336619 219.36996022 -14.27669626 218.54021412 C-11.42355013 214.79019133 -8.68650067 210.95906639 -5.94222361 207.12908131 C-4.85950925 205.62863447 -3.77617402 204.12863545 -2.69222361 202.62908131 C-2.15597361 201.88658131 -1.61972361 201.14408131 -1.06722361 200.37908131 C4.89110972 192.12908131 10.84944306 183.87908131 16.80777639 175.62908131 C17.34394583 174.88666188 17.88011526 174.14424244 18.43253225 173.37932545 C19.51656055 171.87842581 20.60070781 170.37761209 21.68497366 168.87688404 C24.38365294 165.14134164 27.08028951 161.40435877 29.77262014 157.66423756 C35.38680817 149.86992284 41.03663022 142.10454531 46.74527639 134.37908131 C51.56064568 127.86185258 56.31642112 121.30794816 61.01090139 114.70330006 C63.94320373 110.58018556 66.90625916 106.47942937 69.87027639 102.37908131 C70.41820852 101.62103199 70.96614065 100.86298268 71.53067678 100.08196217 C72.64850092 98.53575034 73.76642143 96.98960817 74.88443655 95.44353443 C77.61040778 91.67315112 80.33399173 87.90104437 83.05777639 84.12908131 C84.14109783 82.62907272 85.22443118 81.12907273 86.30777639 79.62908131 C86.84402639 78.88658131 87.38027639 78.14408131 87.93277639 77.37908131 C89.55777639 75.12908131 91.18277639 72.87908131 92.80777639 70.62908131 C93.34394583 69.88666188 93.88011526 69.14424244 94.43253225 68.37932545 C95.51656055 66.87842581 96.60070781 65.37761209 97.68497366 63.87688404 C100.38365294 60.14134164 103.08028951 56.40435877 105.77262014 52.66423756 C112.17270258 43.77932602 118.62315235 34.93494843 125.15323538 26.14495045 C125.9954363 25.00787647 125.9954363 25.00787647 126.85465139 23.84783131 C127.35319631 23.17687428 127.85174124 22.50591725 128.36539358 21.81462818 C129.61911374 20.13261756 129.61911374 20.13261756 130.55777639 18.12908131 C119.19547849 18.03596935 107.83327293 17.96510861 96.47066969 17.92183262 C91.19325202 17.90105127 85.91609741 17.87290833 80.63883108 17.8273235 C75.53594694 17.78352609 70.43331415 17.75987332 65.3302564 17.74957234 C63.39360886 17.74224132 61.45697342 17.72792749 59.52043432 17.70616108 C44.05883898 17.53945302 29.67898648 18.21999223 17.55777639 29.12908131 C8.15341901 38.74524854 4.55086969 52.39963158 1.55777639 65.12908131 C-2.40222361 65.12908131 -6.36222361 65.12908131 -10.44222361 65.12908131 C-10.53057094 57.20083276 -10.20881149 49.39960818 -9.60237986 41.49626881 C-9.51596735 40.33781452 -9.42955485 39.17936024 -9.34052378 37.98580128 C-9.15844806 35.56042536 -8.97430405 33.1352039 -8.78817087 30.710136 C-8.50291648 26.98045326 -8.22707775 23.25015112 -7.95198923 19.51970631 C-7.77351422 17.15768465 -7.59449756 14.79570385 -7.41487986 12.43376881 C-7.33254603 11.31412739 -7.25021219 10.19448597 -7.1653834 9.04091603 C-7.08537592 8.01539631 -7.00536844 6.9898766 -6.9229365 5.93328053 C-6.85409754 5.02714009 -6.78525858 4.12099964 -6.71433359 3.1874004 C-6.1652673 -0.96589677 -3.64642384 0.01023833 0 0 Z " fill="#FBFBFB" transform="translate(262.4422236084938,178.8709186911583)"/>
<path d="M0 0 C0.66 0 1.32 0 2 0 C9.50135763 19.19393454 16.85667094 38.44358617 24.17523193 57.70782471 C25.1840506 60.36327155 26.19390751 63.01831984 27.20465088 65.67303467 C28.64310316 69.45155048 30.07763269 73.23154361 31.51171875 77.01171875 C31.94976334 78.16154739 32.38780792 79.31137604 32.83912659 80.49604797 C33.44215858 82.08874763 33.44215858 82.08874763 34.05737305 83.71362305 C34.40978561 84.64160202 34.76219818 85.56958099 35.12528992 86.52568054 C36 89 36 89 37 93 C12.91 93 -11.18 93 -36 93 C-35.31682219 89.58411097 -34.72686065 86.9997207 -33.48803711 83.86035156 C-33.02421631 82.67585167 -33.02421631 82.67585167 -32.55102539 81.46742249 C-32.04430298 80.19190773 -32.04430298 80.19190773 -31.52734375 78.890625 C-31.17220703 77.98674545 -30.81707031 77.08286591 -30.45117188 76.15159607 C-29.2838126 73.18285945 -28.11070685 70.21643003 -26.9375 67.25 C-26.12856495 65.1965369 -25.32005715 63.14290545 -24.51196289 61.08911133 C-23.2650129 57.91999789 -22.01778681 54.7509969 -20.76902771 51.58259583 C-17.92054282 44.35283601 -15.09349348 37.11502223 -12.28125 29.87109375 C-11.91125381 28.91882904 -11.54125763 27.96656433 -11.16004944 26.98544312 C-9.73427437 23.31569759 -8.30855289 19.6459392 -6.88717651 15.9744873 C-5.9154066 13.46514789 -4.9404675 10.95706178 -3.96484375 8.44921875 C-3.67714111 7.70353134 -3.38943848 6.95784393 -3.09301758 6.18955994 C-1.11377884 1.11377884 -1.11377884 1.11377884 0 0 Z " fill="#020202" transform="translate(129,108)"/>
</svg>
